<svg width="72" height="72" viewBox="0 0 72 72" fill="none" xmlns="http://www.w3.org/2000/svg">
<path d="M36 54C37.02 54 37.875 53.655 38.565 52.965C39.255 52.275 39.6 51.42 39.6 50.4C39.6 49.38 39.255 48.525 38.565 47.835C37.875 47.145 37.02 46.8 36 46.8C34.98 46.8 34.125 47.145 33.435 47.835C32.745 48.525 32.4 49.38 32.4 50.4C32.4 51.42 32.745 52.275 33.435 52.965C34.125 53.655 34.98 54 36 54ZM32.4 39.6H39.6V18H32.4V39.6ZM36 72C31.02 72 26.34 71.055 21.96 69.165C17.58 67.275 13.77 64.71 10.53 61.47C7.29 58.23 4.725 54.42 2.835 50.04C0.945 45.66 0 40.98 0 36C0 31.02 0.945 26.34 2.835 21.96C4.725 17.58 7.29 13.77 10.53 10.53C13.77 7.29 17.58 4.725 21.96 2.835C26.34 0.945 31.02 0 36 0C40.98 0 45.66 0.945 50.04 2.835C54.42 4.725 58.23 7.29 61.47 10.53C64.71 13.77 67.275 17.58 69.165 21.96C71.055 26.34 72 31.02 72 36C72 40.98 71.055 45.66 69.165 50.04C67.275 54.42 64.71 58.23 61.47 61.47C58.23 64.71 54.42 67.275 50.04 69.165C45.66 71.055 40.98 72 36 72Z" fill="#1D1B20"/>
</svg>
