<svg width="15" height="16" viewBox="0 0 15 16" fill="none" xmlns="http://www.w3.org/2000/svg">
<path fill-rule="evenodd" clip-rule="evenodd" d="M4.5 0C4.91421 0 5.25 0.325611 5.25 0.727273V1.45455H9.75V0.727273C9.75 0.325611 10.0858 0 10.5 0C10.9142 0 11.25 0.325611 11.25 0.727273V1.45455H12.75C13.9926 1.45455 15 2.43138 15 3.63636V13.8182C15 15.0232 13.9926 16 12.75 16H2.25C1.00736 16 0 15.0232 0 13.8182V3.63636C0 2.43138 1.00736 1.45455 2.25 1.45455H3.75V0.727273C3.75 0.325611 4.08579 0 4.5 0ZM3.75 2.90909H2.25C1.83579 2.90909 1.5 3.2347 1.5 3.63636V5.81818H13.5V3.63636C13.5 3.2347 13.1642 2.90909 12.75 2.90909H11.25V3.63636C11.25 4.03803 10.9142 4.36364 10.5 4.36364C10.0858 4.36364 9.75 4.03803 9.75 3.63636V2.90909H5.25V3.63636C5.25 4.03803 4.91421 4.36364 4.5 4.36364C4.08579 4.36364 3.75 4.03803 3.75 3.63636V2.90909ZM13.5 7.27273H1.5V13.8182C1.5 14.2198 1.83579 14.5455 2.25 14.5455H12.75C13.1642 14.5455 13.5 14.2198 13.5 13.8182V7.27273Z" fill="white"/>
</svg>
