<svg width="87" height="87" viewBox="0 0 87 87" fill="none" xmlns="http://www.w3.org/2000/svg">
<path fill-rule="evenodd" clip-rule="evenodd" d="M18.125 14.5C17.1636 14.5 16.2416 14.8819 15.5617 15.5617C14.8819 16.2416 14.5 17.1636 14.5 18.125V68.875C14.5 69.8364 14.8819 70.7584 15.5617 71.4383C16.2416 72.1181 17.1636 72.5 18.125 72.5H68.875C69.8364 72.5 70.7584 72.1181 71.4383 71.4383C72.1181 70.7584 72.5 69.8364 72.5 68.875V43.5C72.5 41.498 74.123 39.875 76.125 39.875C78.127 39.875 79.75 41.498 79.75 43.5V68.875C79.75 71.7592 78.6042 74.5253 76.5648 76.5648C74.5253 78.6042 71.7592 79.75 68.875 79.75H18.125C15.2408 79.75 12.4747 78.6042 10.4352 76.5648C8.39576 74.5253 7.25 71.7592 7.25 68.875V18.125C7.25 15.2408 8.39575 12.4747 10.4352 10.4352C12.4747 8.39575 15.2408 7.25 18.125 7.25H58C60.002 7.25 61.625 8.87297 61.625 10.875C61.625 12.877 60.002 14.5 58 14.5H18.125ZM77.1867 11.9367C78.6024 10.5211 80.8976 10.5211 82.3133 11.9367C83.7289 13.3524 83.7289 15.6476 82.3133 17.0633L46.0633 53.3133C44.6476 54.7289 42.3524 54.7289 40.9367 53.3133L30.0617 42.4383C28.6461 41.0226 28.6461 38.7274 30.0617 37.3117C31.4774 35.8961 33.7726 35.8961 35.1883 37.3117L43.5 45.6235L77.1867 11.9367Z" fill="#22C55E"/>
</svg>
