<svg width="107" height="133" viewBox="0 0 107 133" fill="none" xmlns="http://www.w3.org/2000/svg">
<path d="M77.75 17.3H89.875C93.0907 17.3 96.1748 18.5959 98.4487 20.9026C100.723 23.2093 102 26.3378 102 29.6V115.7C102 118.962 100.723 122.091 98.4487 124.397C96.1748 126.704 93.0907 128 89.875 128H17.125C13.9092 128 10.8252 126.704 8.55133 124.397C6.27745 122.091 5 118.962 5 115.7V29.6C5 26.3378 6.27745 23.2093 8.55133 20.9026C10.8252 18.5959 13.9092 17.3 17.125 17.3H29.25M35.3125 5H71.6875C75.0357 5 77.75 7.75345 77.75 11.15V23.45C77.75 26.8466 75.0357 29.6 71.6875 29.6H35.3125C31.9643 29.6 29.25 26.8466 29.25 23.45V11.15C29.25 7.75345 31.9643 5 35.3125 5Z" stroke="#0000D1" stroke-width="10" stroke-linecap="round" stroke-linejoin="round"/>
</svg>
