<svg width="168" height="124" viewBox="0 0 168 124" fill="none" xmlns="http://www.w3.org/2000/svg">
<path fill-rule="evenodd" clip-rule="evenodd" d="M94.5 13.493C108.678 10.4153 118.985 -5.29099 130.209 5.75515C141.219 16.5896 139.54 35.3973 141.033 51.7188C142.432 67.0183 147.781 85.1657 138.439 95.7425C129.283 106.109 113.789 96.5279 100.746 97.3347C89.0999 98.0551 77.9778 105.793 67.2015 100.149C53.9543 93.2112 40.7786 81.0617 38.4326 64.6995C36.0672 48.202 46.5376 34.0959 55.9777 21.8684C64.6131 10.6834 81.5665 16.3004 94.5 13.493Z" fill="#C098D6"/>
<path fill-rule="evenodd" clip-rule="evenodd" d="M160.772 76.7198C160.317 85.7448 164.82 95.3536 159.654 102.773C154.015 110.875 143.859 115.74 133.996 115.185C124.671 114.66 119.365 105.391 111.694 100.072C101.388 92.9261 82.1085 91.745 82.1185 79.2147C82.1285 66.5739 101.214 64.8905 111.727 57.8513C118.446 53.3527 123.924 47.7911 131.8 45.9506C142.167 43.5282 155.231 38.2361 162.524 45.9815C169.841 53.7532 161.311 66.0646 160.772 76.7198Z" fill="#FFB3B3"/>
<path fill-rule="evenodd" clip-rule="evenodd" d="M62.0786 25.407C70.3007 29.158 72.3893 41.2204 80.9678 44.0664C94.555 48.574 116.595 32.8479 123.021 45.625C129.318 58.1467 103.372 65.5432 98.3477 78.6263C94.9954 87.3561 103.863 97.6406 99.8099 106.069C95.5588 114.908 86.5742 122.633 76.7894 123.451C67.0306 124.267 60.6789 112.891 51.2863 110.124C41.9134 107.362 31.2703 112.166 22.6827 107.509C12.5491 102.013 -0.762019 93.8156 0.034094 82.3272C0.8889 69.9918 21.2161 68.3743 26.1796 57.0464C31.2874 45.3892 17.9356 28.089 27.4889 19.6692C36.4332 11.7862 51.2277 20.4568 62.0786 25.407Z" fill="#E5E5FF"/>
<circle cx="91" cy="70.493" r="44" fill="#8282FF"/>
<path d="M107 58.493L85 80.493L75 70.493" stroke="white" stroke-width="4" stroke-linecap="round" stroke-linejoin="round"/>
</svg>
