<svg width="70" height="64" viewBox="0 0 70 64" fill="none" xmlns="http://www.w3.org/2000/svg">
<path d="M67 7C67 5.93913 66.5786 4.92172 65.8284 4.17157C65.0783 3.42143 64.0609 3 63 3H37C35.9391 3 34.9217 3.42143 34.1716 4.17157C33.4214 4.92172 33 5.93913 33 7C33 8.06087 33.4214 9.07828 34.1716 9.82843C34.9217 10.5786 35.9391 11 37 11H63C64.0609 11 65.0783 10.5786 65.8284 9.82843C66.5786 9.07828 67 8.06087 67 7Z" fill="currentColor"/>
<path d="M17 27H57C58.0609 27 59.0783 26.5786 59.8284 25.8284C60.5786 25.0783 61 24.0609 61 23C61 21.9391 60.5786 20.9217 59.8284 20.1716C59.0783 19.4214 58.0609 19 57 19H17C15.9391 19 14.9217 19.4214 14.1716 20.1716C13.4214 20.9217 13 21.9391 13 23C13 24.0609 13.4214 25.0783 14.1716 25.8284C14.9217 26.5786 15.9391 27 17 27Z" fill="currentColor"/>
<path d="M7 43H33C34.0609 43 35.0783 42.5786 35.8284 41.8284C36.5786 41.0783 37 40.0609 37 39C37 37.9391 36.5786 36.9217 35.8284 36.1716C35.0783 35.4214 34.0609 35 33 35H7C5.93913 35 4.92172 35.4214 4.17157 36.1716C3.42143 36.9217 3 37.9391 3 39C3 40.0609 3.42143 41.0783 4.17157 41.8284C4.92172 42.5786 5.93913 43 7 43Z" fill="currentColor"/>
<path d="M64 55C64 53.9391 63.5786 52.9217 62.8284 52.1716C62.0783 51.4214 61.0609 51 60 51H28C26.9391 51 25.9217 51.4214 25.1716 52.1716C24.4214 52.9217 24 53.9391 24 55C24 56.0609 24.4214 57.0783 25.1716 57.8284C25.9217 58.5786 26.9391 59 28 59H60C61.0609 59 62.0783 58.5786 62.8284 57.8284C63.5786 57.0783 64 56.0609 64 55Z" fill="currentColor"/>
</svg>
