<svg width="183" height="100" viewBox="0 0 183 100" fill="none" xmlns="http://www.w3.org/2000/svg">
<path d="M40.6667 20V0H183V20H40.6667ZM40.6667 60V40H183V60H40.6667ZM40.6667 100V80H183V100H40.6667ZM10.1667 20C7.28611 20 4.87153 19.0417 2.92292 17.125C0.974306 15.2083 0 12.8333 0 10C0 7.16667 0.974306 4.79167 2.92292 2.875C4.87153 0.958333 7.28611 0 10.1667 0C13.0472 0 15.4618 0.958333 17.4104 2.875C19.359 4.79167 20.3333 7.16667 20.3333 10C20.3333 12.8333 19.359 15.2083 17.4104 17.125C15.4618 19.0417 13.0472 20 10.1667 20ZM10.1667 60C7.28611 60 4.87153 59.0417 2.92292 57.125C0.974306 55.2083 0 52.8333 0 50C0 47.1667 0.974306 44.7917 2.92292 42.875C4.87153 40.9583 7.28611 40 10.1667 40C13.0472 40 15.4618 40.9583 17.4104 42.875C19.359 44.7917 20.3333 47.1667 20.3333 50C20.3333 52.8333 19.359 55.2083 17.4104 57.125C15.4618 59.0417 13.0472 60 10.1667 60ZM10.1667 100C7.28611 100 4.87153 99.0417 2.92292 97.125C0.974306 95.2083 0 92.8333 0 90C0 87.1667 0.974306 84.7917 2.92292 82.875C4.87153 80.9583 7.28611 80 10.1667 80C13.0472 80 15.4618 80.9583 17.4104 82.875C19.359 84.7917 20.3333 87.1667 20.3333 90C20.3333 92.8333 19.359 95.2083 17.4104 97.125C15.4618 99.0417 13.0472 100 10.1667 100Z" fill="#1D1B20"/>
</svg>
