<svg width="123" height="117" viewBox="0 0 123 117" fill="none" xmlns="http://www.w3.org/2000/svg">
<path fill-rule="evenodd" clip-rule="evenodd" d="M98.4 12.2376C96.5711 12.2376 94.817 12.9605 93.5237 14.2472L17.8533 89.534L14.6025 102.472L27.6059 99.2372L103.276 23.9504C103.917 23.3132 104.425 22.5569 104.771 21.7244C105.118 20.892 105.296 19.9998 105.296 19.0988C105.296 18.1978 105.118 17.3056 104.771 16.4731C104.425 15.6407 103.917 14.8843 103.276 14.2472C102.636 13.6101 101.876 13.1047 101.039 12.7599C100.202 12.4151 99.3056 12.2376 98.4 12.2376ZM84.8263 5.59391C88.4263 2.01219 93.3089 0 98.4 0C100.921 0 103.417 0.494005 105.746 1.45381C108.075 2.41361 110.191 3.82042 111.974 5.59391C113.756 7.36739 115.17 9.47282 116.135 11.79C117.1 14.1072 117.596 16.5907 117.596 19.0988C117.596 21.6069 117.1 24.0904 116.135 26.4076C115.17 28.7248 113.756 30.8302 111.974 32.6037L35.0988 109.089C34.3106 109.873 33.3231 110.429 32.2417 110.698L7.64172 116.817C5.54595 117.338 3.32896 116.728 1.80142 115.208C0.273884 113.688 -0.340187 111.482 0.183754 109.397L6.33375 84.9218C6.60409 83.8459 7.16324 82.8633 7.95141 82.0791L84.8263 5.59391ZM55.3501 110.881C55.3501 107.502 58.1035 104.762 61.5001 104.762H116.85C120.247 104.762 123 107.502 123 110.881C123 114.26 120.247 117 116.85 117H61.5001C58.1035 117 55.3501 114.26 55.3501 110.881Z" fill="black"/>
</svg>
