<svg width="69" height="69" viewBox="0 0 69 69" fill="none" xmlns="http://www.w3.org/2000/svg">
<path fill-rule="evenodd" clip-rule="evenodd" d="M10.35 6.9C8.44462 6.9 6.9 8.44462 6.9 10.35V58.65C6.9 60.5554 8.44462 62.1 10.35 62.1H58.65C60.5554 62.1 62.1 60.5554 62.1 58.65V10.35C62.1 8.44462 60.5554 6.9 58.65 6.9H10.35ZM0 10.35C0 4.63385 4.63385 0 10.35 0H58.65C64.3661 0 69 4.63385 69 10.35V58.65C69 64.3661 64.3661 69 58.65 69H10.35C4.63385 69 0 64.3661 0 58.65V10.35ZM34.5 17.25C36.4054 17.25 37.95 18.7946 37.95 20.7V31.05H48.3C50.2054 31.05 51.75 32.5946 51.75 34.5C51.75 36.4054 50.2054 37.95 48.3 37.95H37.95V48.3C37.95 50.2054 36.4054 51.75 34.5 51.75C32.5946 51.75 31.05 50.2054 31.05 48.3V37.95H20.7C18.7946 37.95 17.25 36.4054 17.25 34.5C17.25 32.5946 18.7946 31.05 20.7 31.05H31.05V20.7C31.05 18.7946 32.5946 17.25 34.5 17.25Z" fill="#0000D1"/>
</svg>
