<svg width="168" height="124" viewBox="0 0 168 124" fill="none" xmlns="http://www.w3.org/2000/svg">
<path fill-rule="evenodd" clip-rule="evenodd" d="M94.5 13.493C108.678 10.4153 118.985 -5.29099 130.209 5.75515C141.219 16.5896 139.54 35.3973 141.033 51.7188C142.432 67.0183 147.781 85.1657 138.439 95.7425C129.283 106.109 113.789 96.5279 100.746 97.3347C89.0999 98.0551 77.9778 105.793 67.2015 100.149C53.9543 93.2112 40.7786 81.0617 38.4326 64.6995C36.0672 48.202 46.5376 34.0959 55.9777 21.8684C64.6131 10.6834 81.5665 16.3004 94.5 13.493Z" fill="#C098D6"/>
<path fill-rule="evenodd" clip-rule="evenodd" d="M160.772 76.7198C160.317 85.7447 164.82 95.3536 159.654 102.773C154.015 110.874 143.859 115.74 133.996 115.185C124.671 114.659 119.365 105.391 111.694 100.072C101.388 92.9261 82.1085 91.745 82.1185 79.2146C82.1285 66.5739 101.214 64.8905 111.727 57.8512C118.446 53.3526 123.924 47.791 131.8 45.9506C142.167 43.5282 155.231 38.236 162.524 45.9814C169.841 53.7531 161.311 66.0646 160.772 76.7198Z" fill="#FFB3B3"/>
<path fill-rule="evenodd" clip-rule="evenodd" d="M62.0786 25.407C70.3007 29.1579 72.3893 41.2204 80.9678 44.0663C94.555 48.574 116.595 32.8478 123.021 45.6249C129.318 58.1467 103.372 65.5431 98.3477 78.6262C94.9954 87.3561 103.863 97.6405 99.8099 106.069C95.5588 114.908 86.5742 122.633 76.7894 123.451C67.0306 124.267 60.6789 112.891 51.2863 110.124C41.9134 107.362 31.2703 112.166 22.6827 107.509C12.5491 102.013 -0.762019 93.8155 0.034094 82.3271C0.8889 69.9917 21.2161 68.3743 26.1796 57.0464C31.2874 45.3891 17.9356 28.0889 27.4889 19.6691C36.4332 11.7861 51.2277 20.4568 62.0786 25.407Z" fill="#E5E5FF"/>
<circle cx="91" cy="70.4929" r="44" fill="#8282FF"/>
<path d="M113 56.7498C113 59.9266 110.427 62.4996 107.25 62.4996C104.073 62.4996 101.5 59.9266 101.5 56.7498C101.5 53.5754 104.073 51 107.25 51C110.427 51 113 53.5754 113 56.7498Z" fill="white"/>
<path d="M97.1636 69.6462L99.6193 84.9955C99.8708 86.5624 101.344 87.6309 102.913 87.3793C104.48 87.1278 105.549 85.6544 105.297 84.0851L101.946 63.1344C101.421 59.8618 98.2298 57.7224 95.0029 58.4818L85.1972 60.7889C81.7233 61.6059 79.5241 65.0294 80.2236 68.5271C80.5111 69.955 81.2586 71.2487 82.3559 72.207L87.6266 76.8212L85.3578 83.632C84.8547 85.1365 85.6692 86.7657 87.1737 87.2664C88.6807 87.7695 90.3098 86.955 90.8105 85.448L93.6854 76.8236C94.052 75.7264 93.7237 74.5141 92.8517 73.7523L90.2715 71.4931L97.1636 69.6462Z" fill="white"/>
<path d="M81.0931 73.6497C80.542 73.1681 80.0605 72.6219 79.6556 72.0254L78.7787 77.7177L68.7694 81.8863C67.3056 82.4972 66.6109 84.1814 67.2218 85.6476C67.8327 87.1114 69.5169 87.8062 70.9831 87.1953L82.4828 82.4038C83.4075 82.018 84.0639 81.1771 84.2173 80.1853L84.7324 76.836L81.0931 73.6497Z" fill="white"/>
</svg>
