<svg width="113" height="95" viewBox="0 0 113 95" fill="none" xmlns="http://www.w3.org/2000/svg">
<path d="M108 9.71229V38.0531M108 38.0531H79.9091M108 38.0531L86.2764 17.4588C81.2446 12.3797 75.0195 8.66938 68.182 6.67403C61.3445 4.67869 54.1175 4.46335 47.1752 6.0481C40.2329 7.63286 33.8016 10.9661 28.4815 15.7367C23.1614 20.5073 19.1258 26.5599 16.7514 33.3296M5 85.2877V56.9469M5 56.9469H33.0909M5 56.9469L26.7236 77.5412C31.7554 82.6203 37.9805 86.3306 44.818 88.326C51.6555 90.3213 58.8825 90.5367 65.8248 88.9519C72.7671 87.3671 79.1984 84.0339 84.5185 79.2633C89.8386 74.4927 93.8742 68.4401 96.2486 61.6704" stroke="#0000D1" stroke-width="10" stroke-linecap="round" stroke-linejoin="round"/>
</svg>
