<svg width="79" height="64" viewBox="0 0 79 64" fill="none" xmlns="http://www.w3.org/2000/svg">
<path d="M7.9 64C5.7275 64 3.86771 63.2167 2.32063 61.65C0.773542 60.0833 0 58.2 0 56V8C0 5.8 0.773542 3.91667 2.32063 2.35C3.86771 0.783333 5.7275 0 7.9 0H71.1C73.2725 0 75.1323 0.783333 76.6794 2.35C78.2265 3.91667 79 5.8 79 8V56C79 58.2 78.2265 60.0833 76.6794 61.65C75.1323 63.2167 73.2725 64 71.1 64H7.9ZM39.5 36L7.9 16V56H71.1V16L39.5 36ZM39.5 28L71.1 8H7.9L39.5 28ZM7.9 16V8V56V16Z" fill="black"/>
</svg>
